<svg width="50" height="40" viewBox="0 0 50 40" fill="none" xmlns="http://www.w3.org/2000/svg">
<g filter="url(#filter0_b_543_18572)">
<mask id="path-1-inside-1_543_18572" fill="white">
<path fill-rule="evenodd" clip-rule="evenodd" d="M23.0641 0.527229C22.6779 0.187433 22.1811 0 21.6667 0H5.61008C5.03695 0 4.48834 0.232543 4.0898 0.64442L2.2388 2.55734C2.01827 2.78524 1.71472 2.91391 1.3976 2.91391V2.91391C0.751121 2.91391 0.227051 3.43798 0.227051 4.08445V37.8845C0.227051 39.0528 1.17419 40 2.34255 40H46.5451C47.7134 40 48.6606 39.0528 48.6606 37.8845V5.0294C48.6606 3.86105 47.7134 2.91391 46.5451 2.91391H26.5749C26.0605 2.91391 25.5637 2.72647 25.1775 2.38668L23.0641 0.527229Z"/>
</mask>
<path fill-rule="evenodd" clip-rule="evenodd" d="M23.0641 0.527229C22.6779 0.187433 22.1811 0 21.6667 0H5.61008C5.03695 0 4.48834 0.232543 4.0898 0.64442L2.2388 2.55734C2.01827 2.78524 1.71472 2.91391 1.3976 2.91391V2.91391C0.751121 2.91391 0.227051 3.43798 0.227051 4.08445V37.8845C0.227051 39.0528 1.17419 40 2.34255 40H46.5451C47.7134 40 48.6606 39.0528 48.6606 37.8845V5.0294C48.6606 3.86105 47.7134 2.91391 46.5451 2.91391H26.5749C26.0605 2.91391 25.5637 2.72647 25.1775 2.38668L23.0641 0.527229Z" fill="white"/>
<path fill-rule="evenodd" clip-rule="evenodd" d="M23.0641 0.527229C22.6779 0.187433 22.1811 0 21.6667 0H5.61008C5.03695 0 4.48834 0.232543 4.0898 0.64442L2.2388 2.55734C2.01827 2.78524 1.71472 2.91391 1.3976 2.91391V2.91391C0.751121 2.91391 0.227051 3.43798 0.227051 4.08445V37.8845C0.227051 39.0528 1.17419 40 2.34255 40H46.5451C47.7134 40 48.6606 39.0528 48.6606 37.8845V5.0294C48.6606 3.86105 47.7134 2.91391 46.5451 2.91391H26.5749C26.0605 2.91391 25.5637 2.72647 25.1775 2.38668L23.0641 0.527229Z" fill="#FBBC05" fill-opacity="0.6"/>
<path d="M23.0641 0.527229L23.0059 0.593407L23.0641 0.527229ZM5.61008 0.0881457H21.6667V-0.0881457H5.61008V0.0881457ZM2.30214 2.61863L4.15314 0.705715L4.02645 0.583125L2.17545 2.49604L2.30214 2.61863ZM0.315196 37.8845V4.08445H0.138905V37.8845H0.315196ZM46.5451 39.9118H2.34255V40.0881H46.5451V39.9118ZM48.5724 5.0294V37.8845H48.7487V5.0294H48.5724ZM26.5749 3.00205H46.5451V2.82576H26.5749V3.00205ZM23.0059 0.593407L25.1193 2.45286L25.2357 2.3205L23.1223 0.461051L23.0059 0.593407ZM26.5749 2.82576C26.0819 2.82576 25.6059 2.64614 25.2357 2.3205L25.1193 2.45286C25.5216 2.80681 26.0391 3.00205 26.5749 3.00205V2.82576ZM48.7487 5.0294C48.7487 3.81237 47.7621 2.82576 46.5451 2.82576V3.00205C47.6648 3.00205 48.5724 3.90973 48.5724 5.0294H48.7487ZM46.5451 40.0881C47.7621 40.0881 48.7487 39.1015 48.7487 37.8845H48.5724C48.5724 39.0041 47.6648 39.9118 46.5451 39.9118V40.0881ZM0.138905 37.8845C0.138905 39.1015 1.12551 40.0881 2.34255 40.0881V39.9118C1.22287 39.9118 0.315196 39.0041 0.315196 37.8845H0.138905ZM1.3976 2.82576C0.70244 2.82576 0.138905 3.3893 0.138905 4.08445H0.315196C0.315196 3.48666 0.799803 3.00205 1.3976 3.00205V2.82576ZM2.17545 2.49604C1.97153 2.70678 1.69084 2.82576 1.3976 2.82576V3.00205C1.7386 3.00205 2.06501 2.86369 2.30214 2.61863L2.17545 2.49604ZM21.6667 0.0881457C22.1597 0.0881457 22.6357 0.267769 23.0059 0.593407L23.1223 0.461051C22.72 0.107097 22.2025 -0.0881457 21.6667 -0.0881457V0.0881457ZM5.61008 -0.0881457C5.01307 -0.0881457 4.4416 0.154087 4.02645 0.583125L4.15314 0.705715C4.53508 0.311 5.06083 0.0881457 5.61008 0.0881457V-0.0881457Z" fill="#FBBC05" mask="url(#path-1-inside-1_543_18572)"/>
</g>
<g filter="url(#filter1_b_543_18572)">
<path d="M2.25171 8.49971C2.25171 7.38978 3.15149 6.48999 4.26143 6.48999H44.348C45.4579 6.48999 46.3577 7.38977 46.3577 8.49971V35.3412C46.3577 36.4511 45.4579 37.3509 44.348 37.3509H4.26143C3.15149 37.3509 2.25171 36.4511 2.25171 35.3412V8.49971Z" fill="url(#paint0_linear_543_18572)" fill-opacity="0.8"/>
<path d="M4.26143 6.57373H44.3479C45.4116 6.57373 46.2739 7.43602 46.2739 8.49971V35.3412C46.2739 36.4049 45.4116 37.2672 44.348 37.2672H4.26143C3.19774 37.2672 2.33545 36.4049 2.33545 35.3412V8.49971C2.33545 7.43602 3.19774 6.57373 4.26143 6.57373Z" stroke="#FEFEFD" stroke-width="0.167477"/>
</g>
<g filter="url(#filter2_b_543_18572)">
<path d="M1.73378e-06 15.8847C1.94378e-06 12.9638 2.36785 10.5959 5.28874 10.5959H43.8503C46.7712 10.5959 49.1391 12.9638 49.1391 15.8847V37.8844C49.1391 39.0528 48.1919 39.9999 47.0236 39.9999H2.1155C0.947142 39.9999 6.80954e-08 39.0528 1.52095e-07 37.8844L1.73378e-06 15.8847Z" fill="#FBBC05" fill-opacity="0.2"/>
<path d="M5.28874 10.6841H43.8503C46.7225 10.6841 49.0509 13.0125 49.0509 15.8847V37.8844C49.0509 39.0041 48.1433 39.9118 47.0236 39.9118H2.1155C0.995823 39.9118 0.0881458 39.0041 0.0881458 37.8844L0.0881474 15.8847C0.0881476 13.0125 2.41653 10.6841 5.28874 10.6841Z" stroke="#FBBC05" stroke-opacity="0.5" stroke-width="0.176291"/>
</g>
<defs>
<filter id="filter0_b_543_18572" x="-1.00699" y="-1.23404" width="50.9017" height="42.4681" filterUnits="userSpaceOnUse" color-interpolation-filters="sRGB">
<feFlood flood-opacity="0" result="BackgroundImageFix"/>
<feGaussianBlur in="BackgroundImageFix" stdDeviation="0.61702"/>
<feComposite in2="SourceAlpha" operator="in" result="effect1_backgroundBlur_543_18572"/>
<feBlend mode="normal" in="SourceGraphic" in2="effect1_backgroundBlur_543_18572" result="shape"/>
</filter>
<filter id="filter1_b_543_18572" x="-0.606961" y="3.63132" width="49.8233" height="36.5782" filterUnits="userSpaceOnUse" color-interpolation-filters="sRGB">
<feFlood flood-opacity="0" result="BackgroundImageFix"/>
<feGaussianBlur in="BackgroundImageFix" stdDeviation="1.42933"/>
<feComposite in2="SourceAlpha" operator="in" result="effect1_backgroundBlur_543_18572"/>
<feBlend mode="normal" in="SourceGraphic" in2="effect1_backgroundBlur_543_18572" result="shape"/>
</filter>
<filter id="filter2_b_543_18572" x="-1.23404" y="9.36191" width="51.6072" height="31.8721" filterUnits="userSpaceOnUse" color-interpolation-filters="sRGB">
<feFlood flood-opacity="0" result="BackgroundImageFix"/>
<feGaussianBlur in="BackgroundImageFix" stdDeviation="0.61702"/>
<feComposite in2="SourceAlpha" operator="in" result="effect1_backgroundBlur_543_18572"/>
<feBlend mode="normal" in="SourceGraphic" in2="effect1_backgroundBlur_543_18572" result="shape"/>
</filter>
<linearGradient id="paint0_linear_543_18572" x1="24.3047" y1="6.48999" x2="24.3047" y2="37.3509" gradientUnits="userSpaceOnUse">
<stop stop-color="white"/>
<stop offset="1" stop-color="white" stop-opacity="0.3"/>
</linearGradient>
</defs>
</svg>
