<svg width="161" height="40" viewBox="0 0 161 40" fill="none" xmlns="http://www.w3.org/2000/svg">
<g filter="url(#filter0_b_543_18578)">
<mask id="path-1-inside-1_543_18578" fill="white">
<path fill-rule="evenodd" clip-rule="evenodd" d="M23.0641 0.527229C22.6779 0.187433 22.1811 0 21.6667 0H5.61008C5.03695 0 4.48834 0.232543 4.0898 0.64442L2.2388 2.55734C2.01827 2.78524 1.71472 2.91391 1.3976 2.91391V2.91391C0.751121 2.91391 0.227051 3.43798 0.227051 4.08445V37.8845C0.227051 39.0528 1.17419 40 2.34255 40H46.5451C47.7134 40 48.6606 39.0528 48.6606 37.8845V5.0294C48.6606 3.86105 47.7134 2.91391 46.5451 2.91391H26.5749C26.0605 2.91391 25.5637 2.72647 25.1775 2.38668L23.0641 0.527229Z"/>
</mask>
<path fill-rule="evenodd" clip-rule="evenodd" d="M23.0641 0.527229C22.6779 0.187433 22.1811 0 21.6667 0H5.61008C5.03695 0 4.48834 0.232543 4.0898 0.64442L2.2388 2.55734C2.01827 2.78524 1.71472 2.91391 1.3976 2.91391V2.91391C0.751121 2.91391 0.227051 3.43798 0.227051 4.08445V37.8845C0.227051 39.0528 1.17419 40 2.34255 40H46.5451C47.7134 40 48.6606 39.0528 48.6606 37.8845V5.0294C48.6606 3.86105 47.7134 2.91391 46.5451 2.91391H26.5749C26.0605 2.91391 25.5637 2.72647 25.1775 2.38668L23.0641 0.527229Z" fill="white"/>
<path fill-rule="evenodd" clip-rule="evenodd" d="M23.0641 0.527229C22.6779 0.187433 22.1811 0 21.6667 0H5.61008C5.03695 0 4.48834 0.232543 4.0898 0.64442L2.2388 2.55734C2.01827 2.78524 1.71472 2.91391 1.3976 2.91391V2.91391C0.751121 2.91391 0.227051 3.43798 0.227051 4.08445V37.8845C0.227051 39.0528 1.17419 40 2.34255 40H46.5451C47.7134 40 48.6606 39.0528 48.6606 37.8845V5.0294C48.6606 3.86105 47.7134 2.91391 46.5451 2.91391H26.5749C26.0605 2.91391 25.5637 2.72647 25.1775 2.38668L23.0641 0.527229Z" fill="#FBBC05" fill-opacity="0.6"/>
<path d="M23.0641 0.527229L23.0059 0.593407L23.0641 0.527229ZM5.61008 0.0881457H21.6667V-0.0881457H5.61008V0.0881457ZM2.30214 2.61863L4.15314 0.705715L4.02645 0.583125L2.17545 2.49604L2.30214 2.61863ZM0.315196 37.8845V4.08445H0.138905V37.8845H0.315196ZM46.5451 39.9118H2.34255V40.0881H46.5451V39.9118ZM48.5724 5.0294V37.8845H48.7487V5.0294H48.5724ZM26.5749 3.00205H46.5451V2.82576H26.5749V3.00205ZM23.0059 0.593407L25.1193 2.45286L25.2357 2.3205L23.1223 0.461051L23.0059 0.593407ZM26.5749 2.82576C26.0819 2.82576 25.6059 2.64614 25.2357 2.3205L25.1193 2.45286C25.5216 2.80681 26.0391 3.00205 26.5749 3.00205V2.82576ZM48.7487 5.0294C48.7487 3.81237 47.7621 2.82576 46.5451 2.82576V3.00205C47.6648 3.00205 48.5724 3.90973 48.5724 5.0294H48.7487ZM46.5451 40.0881C47.7621 40.0881 48.7487 39.1015 48.7487 37.8845H48.5724C48.5724 39.0041 47.6648 39.9118 46.5451 39.9118V40.0881ZM0.138905 37.8845C0.138905 39.1015 1.12551 40.0881 2.34255 40.0881V39.9118C1.22287 39.9118 0.315196 39.0041 0.315196 37.8845H0.138905ZM1.3976 2.82576C0.70244 2.82576 0.138905 3.3893 0.138905 4.08445H0.315196C0.315196 3.48666 0.799803 3.00205 1.3976 3.00205V2.82576ZM2.17545 2.49604C1.97153 2.70678 1.69084 2.82576 1.3976 2.82576V3.00205C1.7386 3.00205 2.06501 2.86369 2.30214 2.61863L2.17545 2.49604ZM21.6667 0.0881457C22.1597 0.0881457 22.6357 0.267769 23.0059 0.593407L23.1223 0.461051C22.72 0.107097 22.2025 -0.0881457 21.6667 -0.0881457V0.0881457ZM5.61008 -0.0881457C5.01307 -0.0881457 4.4416 0.154087 4.02645 0.583125L4.15314 0.705715C4.53508 0.311 5.06083 0.0881457 5.61008 0.0881457V-0.0881457Z" fill="#FBBC05" mask="url(#path-1-inside-1_543_18578)"/>
</g>
<g filter="url(#filter1_b_543_18578)">
<path d="M2.25171 8.49971C2.25171 7.38978 3.15149 6.48999 4.26143 6.48999H44.348C45.4579 6.48999 46.3577 7.38977 46.3577 8.49971V35.3412C46.3577 36.4511 45.4579 37.3509 44.348 37.3509H4.26143C3.15149 37.3509 2.25171 36.4511 2.25171 35.3412V8.49971Z" fill="url(#paint0_linear_543_18578)" fill-opacity="0.8"/>
<path d="M4.26143 6.57373H44.3479C45.4116 6.57373 46.2739 7.43602 46.2739 8.49971V35.3412C46.2739 36.4049 45.4116 37.2672 44.348 37.2672H4.26143C3.19774 37.2672 2.33545 36.4049 2.33545 35.3412V8.49971C2.33545 7.43602 3.19774 6.57373 4.26143 6.57373Z" stroke="#FEFEFD" stroke-width="0.167477"/>
</g>
<g filter="url(#filter2_b_543_18578)">
<path d="M1.73378e-06 15.8847C1.94378e-06 12.9638 2.36785 10.5959 5.28874 10.5959H43.8503C46.7712 10.5959 49.1391 12.9638 49.1391 15.8847V37.8844C49.1391 39.0528 48.1919 39.9999 47.0236 39.9999H2.1155C0.947142 39.9999 6.80954e-08 39.0528 1.52095e-07 37.8844L1.73378e-06 15.8847Z" fill="#FBBC05" fill-opacity="0.2"/>
<path d="M5.28874 10.6841H43.8503C46.7225 10.6841 49.0509 13.0125 49.0509 15.8847V37.8844C49.0509 39.0041 48.1433 39.9118 47.0236 39.9118H2.1155C0.995823 39.9118 0.0881458 39.0041 0.0881458 37.8844L0.0881474 15.8847C0.0881476 13.0125 2.41653 10.6841 5.28874 10.6841Z" stroke="#FBBC05" stroke-opacity="0.5" stroke-width="0.176291"/>
</g>
<path d="M153.927 27.328C152.759 27.328 151.751 27.096 150.903 26.632C150.055 26.168 149.439 25.608 149.055 24.952V26.992H146.583V7.16797H149.055V15.304C149.439 14.648 150.055 14.088 150.903 13.624C151.751 13.16 152.759 12.928 153.927 12.928C155.207 12.928 156.359 13.24 157.383 13.864C158.423 14.488 159.239 15.352 159.831 16.456C160.423 17.56 160.719 18.784 160.719 20.128C160.719 21.472 160.423 22.696 159.831 23.8C159.239 24.904 158.423 25.768 157.383 26.392C156.359 27.016 155.207 27.328 153.927 27.328ZM153.711 25.144C154.607 25.144 155.399 24.928 156.087 24.496C156.791 24.064 157.335 23.464 157.719 22.696C158.103 21.928 158.295 21.072 158.295 20.128C158.295 19.184 158.103 18.328 157.719 17.56C157.335 16.792 156.791 16.192 156.087 15.76C155.399 15.328 154.607 15.112 153.711 15.112C152.799 15.112 151.983 15.336 151.263 15.784C150.559 16.216 150.007 16.816 149.607 17.584C149.207 18.336 149.007 19.184 149.007 20.128C149.007 21.072 149.207 21.928 149.607 22.696C150.007 23.448 150.559 24.048 151.263 24.496C151.983 24.928 152.799 25.144 153.711 25.144Z" fill="white" fill-opacity="0.85"/>
<path d="M153.927 27.328C152.759 27.328 151.751 27.096 150.903 26.632C150.055 26.168 149.439 25.608 149.055 24.952V26.992H146.583V7.16797H149.055V15.304C149.439 14.648 150.055 14.088 150.903 13.624C151.751 13.16 152.759 12.928 153.927 12.928C155.207 12.928 156.359 13.24 157.383 13.864C158.423 14.488 159.239 15.352 159.831 16.456C160.423 17.56 160.719 18.784 160.719 20.128C160.719 21.472 160.423 22.696 159.831 23.8C159.239 24.904 158.423 25.768 157.383 26.392C156.359 27.016 155.207 27.328 153.927 27.328ZM153.711 25.144C154.607 25.144 155.399 24.928 156.087 24.496C156.791 24.064 157.335 23.464 157.719 22.696C158.103 21.928 158.295 21.072 158.295 20.128C158.295 19.184 158.103 18.328 157.719 17.56C157.335 16.792 156.791 16.192 156.087 15.76C155.399 15.328 154.607 15.112 153.711 15.112C152.799 15.112 151.983 15.336 151.263 15.784C150.559 16.216 150.007 16.816 149.607 17.584C149.207 18.336 149.007 19.184 149.007 20.128C149.007 21.072 149.207 21.928 149.607 22.696C150.007 23.448 150.559 24.048 151.263 24.496C151.983 24.928 152.799 25.144 153.711 25.144Z" fill="#676967"/>
<path d="M140.228 26.9919V24.9039C139.876 25.5279 139.292 26.0879 138.476 26.5839C137.676 27.0799 136.708 27.3279 135.572 27.3279C134.5 27.3279 133.54 27.0799 132.692 26.5839C131.86 26.0879 131.212 25.3919 130.748 24.4959C130.284 23.5839 130.052 22.5199 130.052 21.3039V13.2639H132.524V20.8719C132.524 22.2479 132.836 23.3119 133.46 24.0639C134.1 24.7999 134.98 25.1679 136.1 25.1679C136.884 25.1679 137.588 24.9519 138.212 24.5199C138.836 24.0719 139.324 23.4799 139.676 22.7439C140.044 22.0079 140.228 21.2159 140.228 20.3679V13.2639H142.7V26.9919H140.228Z" fill="white" fill-opacity="0.85"/>
<path d="M140.228 26.9919V24.9039C139.876 25.5279 139.292 26.0879 138.476 26.5839C137.676 27.0799 136.708 27.3279 135.572 27.3279C134.5 27.3279 133.54 27.0799 132.692 26.5839C131.86 26.0879 131.212 25.3919 130.748 24.4959C130.284 23.5839 130.052 22.5199 130.052 21.3039V13.2639H132.524V20.8719C132.524 22.2479 132.836 23.3119 133.46 24.0639C134.1 24.7999 134.98 25.1679 136.1 25.1679C136.884 25.1679 137.588 24.9519 138.212 24.5199C138.836 24.0719 139.324 23.4799 139.676 22.7439C140.044 22.0079 140.228 21.2159 140.228 20.3679V13.2639H142.7V26.9919H140.228Z" fill="#676967"/>
<path d="M126.364 7.76807V26.9921H123.844V18.3041H112.684V26.9921H110.164V7.76807H112.684V16.0001H123.844V7.76807H126.364Z" fill="white" fill-opacity="0.85"/>
<path d="M126.364 7.76807V26.9921H123.844V18.3041H112.684V26.9921H110.164V7.76807H112.684V16.0001H123.844V7.76807H126.364Z" fill="#676967"/>
<path d="M107.651 15.448H104.603V26.992H102.131V15.448H99.4189V13.264H102.131V10.936C102.131 9.76802 102.451 8.83202 103.091 8.12802C103.747 7.42402 104.651 7.07202 105.803 7.07202C106.443 7.07202 106.979 7.12002 107.411 7.21602V9.30402C107.187 9.25602 106.795 9.23202 106.235 9.23202C105.723 9.23202 105.323 9.39202 105.035 9.71202C104.747 10.016 104.603 10.448 104.603 11.008V13.264H107.651V15.448Z" fill="white" fill-opacity="0.85"/>
<path d="M107.651 15.448H104.603V26.992H102.131V15.448H99.4189V13.264H102.131V10.936C102.131 9.76802 102.451 8.83202 103.091 8.12802C103.747 7.42402 104.651 7.07202 105.803 7.07202C106.443 7.07202 106.979 7.12002 107.411 7.21602V9.30402C107.187 9.25602 106.795 9.23202 106.235 9.23202C105.723 9.23202 105.323 9.39202 105.035 9.71202C104.747 10.016 104.603 10.448 104.603 11.008V13.264H107.651V15.448Z" fill="#676967"/>
<path d="M91.1802 27.328C89.8682 27.328 88.6842 27.016 87.6282 26.392C86.5882 25.768 85.7722 24.912 85.1802 23.824C84.5882 22.72 84.2922 21.488 84.2922 20.128C84.2922 18.768 84.5882 17.544 85.1802 16.456C85.7722 15.352 86.5882 14.488 87.6282 13.864C88.6842 13.24 89.8682 12.928 91.1802 12.928C92.4922 12.928 93.6682 13.24 94.7082 13.864C95.7642 14.488 96.5802 15.352 97.1562 16.456C97.7482 17.544 98.0442 18.768 98.0442 20.128C98.0442 20.576 98.0282 20.912 97.9962 21.136H86.7642C86.8922 22.336 87.3562 23.32 88.1562 24.088C88.9722 24.856 89.9802 25.24 91.1802 25.24C92.0922 25.24 92.8922 25.056 93.5802 24.688C94.2842 24.304 94.7642 23.824 95.0202 23.248H97.5402C97.1562 24.448 96.3882 25.424 95.2362 26.176C94.0842 26.944 92.7322 27.328 91.1802 27.328ZM95.6202 19.12C95.4762 17.904 95.0042 16.92 94.2042 16.168C93.4042 15.4 92.3962 15.016 91.1802 15.016C89.9642 15.016 88.9562 15.4 88.1562 16.168C87.3562 16.92 86.8922 17.904 86.7642 19.12H95.6202Z" fill="white" fill-opacity="0.85"/>
<path d="M91.1802 27.328C89.8682 27.328 88.6842 27.016 87.6282 26.392C86.5882 25.768 85.7722 24.912 85.1802 23.824C84.5882 22.72 84.2922 21.488 84.2922 20.128C84.2922 18.768 84.5882 17.544 85.1802 16.456C85.7722 15.352 86.5882 14.488 87.6282 13.864C88.6842 13.24 89.8682 12.928 91.1802 12.928C92.4922 12.928 93.6682 13.24 94.7082 13.864C95.7642 14.488 96.5802 15.352 97.1562 16.456C97.7482 17.544 98.0442 18.768 98.0442 20.128C98.0442 20.576 98.0282 20.912 97.9962 21.136H86.7642C86.8922 22.336 87.3562 23.32 88.1562 24.088C88.9722 24.856 89.9802 25.24 91.1802 25.24C92.0922 25.24 92.8922 25.056 93.5802 24.688C94.2842 24.304 94.7642 23.824 95.0202 23.248H97.5402C97.1562 24.448 96.3882 25.424 95.2362 26.176C94.0842 26.944 92.7322 27.328 91.1802 27.328ZM95.6202 19.12C95.4762 17.904 95.0042 16.92 94.2042 16.168C93.4042 15.4 92.3962 15.016 91.1802 15.016C89.9642 15.016 88.9562 15.4 88.1562 16.168C87.3562 16.92 86.8922 17.904 86.7642 19.12H95.6202Z" fill="#676967"/>
<path d="M79.8506 26.9921L75.4826 20.1521C75.0026 20.1841 74.6426 20.2001 74.4026 20.2001H69.7226V26.9921H67.2026V7.76807H74.4026C76.0026 7.76807 77.3786 8.02407 78.5306 8.53607C79.6986 9.03207 80.5866 9.75207 81.1946 10.6961C81.8026 11.6241 82.1066 12.7201 82.1066 13.9841C82.1066 15.3441 81.7546 16.5121 81.0506 17.4881C80.3466 18.4641 79.3306 19.1841 78.0026 19.6481L82.8266 26.9921H79.8506ZM74.2106 17.9441C75.9066 17.9441 77.2266 17.6081 78.1706 16.9361C79.1146 16.2481 79.5866 15.2641 79.5866 13.9841C79.5866 12.7041 79.1146 11.7281 78.1706 11.0561C77.2266 10.3681 75.9066 10.0241 74.2106 10.0241H69.7226V17.9441H74.2106Z" fill="white" fill-opacity="0.85"/>
<path d="M79.8506 26.9921L75.4826 20.1521C75.0026 20.1841 74.6426 20.2001 74.4026 20.2001H69.7226V26.9921H67.2026V7.76807H74.4026C76.0026 7.76807 77.3786 8.02407 78.5306 8.53607C79.6986 9.03207 80.5866 9.75207 81.1946 10.6961C81.8026 11.6241 82.1066 12.7201 82.1066 13.9841C82.1066 15.3441 81.7546 16.5121 81.0506 17.4881C80.3466 18.4641 79.3306 19.1841 78.0026 19.6481L82.8266 26.9921H79.8506ZM74.2106 17.9441C75.9066 17.9441 77.2266 17.6081 78.1706 16.9361C79.1146 16.2481 79.5866 15.2641 79.5866 13.9841C79.5866 12.7041 79.1146 11.7281 78.1706 11.0561C77.2266 10.3681 75.9066 10.0241 74.2106 10.0241H69.7226V17.9441H74.2106Z" fill="#676967"/>
<defs>
<filter id="filter0_b_543_18578" x="-1.00699" y="-1.23404" width="50.9017" height="42.4681" filterUnits="userSpaceOnUse" color-interpolation-filters="sRGB">
<feFlood flood-opacity="0" result="BackgroundImageFix"/>
<feGaussianBlur in="BackgroundImageFix" stdDeviation="0.61702"/>
<feComposite in2="SourceAlpha" operator="in" result="effect1_backgroundBlur_543_18578"/>
<feBlend mode="normal" in="SourceGraphic" in2="effect1_backgroundBlur_543_18578" result="shape"/>
</filter>
<filter id="filter1_b_543_18578" x="-0.606961" y="3.63132" width="49.8233" height="36.5782" filterUnits="userSpaceOnUse" color-interpolation-filters="sRGB">
<feFlood flood-opacity="0" result="BackgroundImageFix"/>
<feGaussianBlur in="BackgroundImageFix" stdDeviation="1.42933"/>
<feComposite in2="SourceAlpha" operator="in" result="effect1_backgroundBlur_543_18578"/>
<feBlend mode="normal" in="SourceGraphic" in2="effect1_backgroundBlur_543_18578" result="shape"/>
</filter>
<filter id="filter2_b_543_18578" x="-1.23404" y="9.36191" width="51.6072" height="31.8721" filterUnits="userSpaceOnUse" color-interpolation-filters="sRGB">
<feFlood flood-opacity="0" result="BackgroundImageFix"/>
<feGaussianBlur in="BackgroundImageFix" stdDeviation="0.61702"/>
<feComposite in2="SourceAlpha" operator="in" result="effect1_backgroundBlur_543_18578"/>
<feBlend mode="normal" in="SourceGraphic" in2="effect1_backgroundBlur_543_18578" result="shape"/>
</filter>
<linearGradient id="paint0_linear_543_18578" x1="24.3047" y1="6.48999" x2="24.3047" y2="37.3509" gradientUnits="userSpaceOnUse">
<stop stop-color="white"/>
<stop offset="1" stop-color="white" stop-opacity="0.3"/>
</linearGradient>
</defs>
</svg>
