<svg width="32" height="32" viewBox="0 0 32 32" fill="none" xmlns="http://www.w3.org/2000/svg">
<g id="Frame 1321316167">
<g id="instagram">
<path id="Subtract" fill-rule="evenodd" clip-rule="evenodd" d="M9.14287 4C6.30255 4 4 6.30254 4 9.14289V22.8572C4 25.6975 6.30255 28.0002 9.14287 28.0002H22.8573C25.6976 28.0002 28 25.6975 28 22.8572V9.14289C28 6.30254 25.6976 4 22.8573 4H9.14287ZM24.3377 9.15033C24.3377 9.96846 23.6744 10.6317 22.8563 10.6317C22.0381 10.6317 21.3749 9.96846 21.3749 9.15033C21.3749 8.33218 22.0381 7.66896 22.8563 7.66896C23.6744 7.66896 24.3377 8.33218 24.3377 9.15033ZM16.0003 11.8915C13.7313 11.8915 11.8918 13.7309 11.8918 15.9999C11.8918 18.269 13.7313 20.1084 16.0003 20.1084C18.2693 20.1084 20.1088 18.269 20.1088 15.9999C20.1088 13.7309 18.2693 11.8915 16.0003 11.8915ZM9.91668 15.9999C9.91668 12.64 12.6404 9.91632 16.0003 9.91632C19.3602 9.91632 22.0839 12.64 22.0839 15.9999C22.0839 19.3598 19.3602 22.0836 16.0003 22.0836C12.6404 22.0836 9.91668 19.3598 9.91668 15.9999Z" fill="#676967"/>
</g>
</g>
</svg>
