<svg width="179" height="36" viewBox="0 0 179 36" fill="none" xmlns="http://www.w3.org/2000/svg">
<path d="M67.7045 30.5719V30.7219H67.8545H69.3885H69.5385V30.5719V22.0899H78.1737L83.8233 30.6545L83.8677 30.7219H83.9485H85.7945H86.0724L85.9199 30.4896L80.4044 22.0899H81.1145C82.4284 22.0899 83.441 21.8498 84.1282 21.3459C84.8241 20.8355 85.1645 20.0711 85.1645 19.0799V13.6979C85.1645 12.7067 84.8241 11.9422 84.1282 11.4319C83.441 10.928 82.4284 10.6879 81.1145 10.6879H67.8545H67.7045V10.8379V30.5719ZM80.9845 20.5939H69.5385V12.1839H80.9845C81.7972 12.1839 82.3787 12.3663 82.7564 12.7046C83.131 13.0402 83.3305 13.5522 83.3305 14.2699V18.4819C83.3305 19.2088 83.1307 19.7275 82.7558 20.0672C82.3781 20.4095 81.7968 20.5939 80.9845 20.5939Z" fill="#676967" stroke="#676967" stroke-width="0.3"/>
<path d="M104.031 24.0135H104.181V23.8635V18.2475C104.181 17.2745 103.852 16.5231 103.178 16.0212C102.512 15.5253 101.532 15.2895 100.261 15.2895H92.5649C91.294 15.2895 90.3135 15.5253 89.6478 16.0212C88.9739 16.5231 88.6449 17.2745 88.6449 18.2475V27.5295C88.6449 28.6163 88.9668 29.4392 89.6388 29.9619L89.6404 29.9631C90.3189 30.4766 91.3104 30.7215 92.5909 30.7215H103.433H103.583V30.5715V29.3755V29.2255H103.433H92.8509C92.0347 29.2255 91.4379 29.0806 91.0402 28.8114C90.6773 28.5376 90.4789 28.0726 90.4789 27.3735V24.0135H104.031ZM101.76 17.1999L101.76 17.1999L101.763 17.2015C102.139 17.4576 102.347 17.9192 102.347 18.6375V22.5175H90.4789V18.6375C90.4789 17.9178 90.679 17.456 91.0385 17.2007C91.4366 16.9304 92.0257 16.7855 92.8249 16.7855H100.001C100.802 16.7855 101.381 16.931 101.76 17.1999Z" fill="#676967" stroke="#676967" stroke-width="0.3"/>
<path d="M118.287 19.5939H118.437V19.4439V18.2479V18.0979H118.287H109.715V14.0359C109.715 13.3343 109.914 12.8801 110.275 12.6243L110.275 12.6243L110.276 12.6236C110.674 12.3377 111.27 12.1839 112.087 12.1839H118.287H118.437V12.0339V10.8379V10.6879H118.287H111.827C110.546 10.6879 109.555 10.9328 108.876 11.4463L108.876 11.4463L108.875 11.4475C108.203 11.9702 107.881 12.7931 107.881 13.8799V30.5719V30.7219H108.031H109.565H109.715V30.5719V19.5939H118.287Z" fill="#676967" stroke="#676967" stroke-width="0.3"/>
<path d="M137.893 30.5719V30.7219H138.043H139.577H139.727V30.5719V10.8379V10.6879H139.577H138.043H137.893V10.8379V19.2939H123.971V10.8379V10.6879H123.821H122.287H122.137V10.8379V30.5719V30.7219H122.287H123.821H123.971V30.5719V20.7899H137.893V30.5719Z" fill="#676967" stroke="#676967" stroke-width="0.3"/>
<path d="M157.019 15.2895H156.869V15.4395V27.3735C156.869 28.0719 156.662 28.537 156.282 28.8113C155.902 29.0797 155.315 29.2255 154.497 29.2255H147.633C146.816 29.2255 146.22 29.0806 145.822 28.8114C145.459 28.5376 145.261 28.0726 145.261 27.3735V15.4395V15.2895H145.111H143.577H143.427V15.4395V27.5295C143.427 28.6163 143.749 29.4392 144.421 29.9619L144.422 29.9631C145.101 30.4766 146.092 30.7215 147.373 30.7215H154.757C156.036 30.7215 157.02 30.4769 157.682 29.9625C158.371 29.4403 158.703 28.6173 158.703 27.5295V15.4395V15.2895H158.553H157.019Z" fill="#676967" stroke="#676967" stroke-width="0.3"/>
<path d="M162.403 30.5722V30.7222H162.553H173.889C175.205 30.7222 176.22 30.4597 176.907 29.9093C177.602 29.3539 177.939 28.5253 177.939 27.4522V18.5602C177.939 17.4871 177.602 16.6585 176.907 16.1031C176.22 15.5528 175.205 15.2902 173.889 15.2902H164.237V9.4082V9.2582H164.087H162.553H162.403V9.4082V30.5722ZM173.759 16.7862C174.571 16.7862 175.153 16.9686 175.531 17.3069C175.905 17.6425 176.105 18.1545 176.105 18.8722V27.1142C176.105 27.8401 175.901 28.3585 175.518 28.6985C175.132 29.0415 174.537 29.2262 173.707 29.2262H164.237V16.7862H173.759Z" fill="#676967" stroke="#676967" stroke-width="0.3"/>
<path fill-rule="evenodd" clip-rule="evenodd" d="M46.9975 35.875C46.9597 35.877 46.9217 35.8781 46.8834 35.8781H2.11663C0.947648 35.8781 0 34.9304 0 33.7614V33.7593V14.9213V8.04436C0 8.03787 2.92876e-05 8.03137 8.7738e-05 8.02489V2.11663C8.7738e-05 0.947648 0.947735 0 2.11672 0H15.2887C15.8968 0 16.4755 0.261499 16.8773 0.71785L21.4648 5.92773H46.8834C48.0524 5.92773 49 6.87538 49 8.04436V14.9213V33.7593V33.7614C49 34.7962 48.2574 35.6576 47.276 35.8417C47.2337 35.8631 47.1849 35.8754 47.1313 35.8753L46.9975 35.875Z" fill="white"/>
<path d="M8.7738e-05 33.6591V2.11663C8.7738e-05 0.947648 0.947735 0 2.11672 0H15.2887C15.8968 0 16.4755 0.261499 16.8773 0.71785L47.3703 35.348C47.551 35.5533 47.4048 35.8759 47.1313 35.8753L2.11203 35.7757C0.944885 35.7731 8.7738e-05 34.8263 8.7738e-05 33.6591Z" fill="#FBBC05" fill-opacity="0.5"/>
<path d="M49 8.04424C49 6.87526 48.0524 5.92761 46.8834 5.92761H2.11663C0.947649 5.92761 0 6.87526 0 8.04424V33.7613C0 34.9303 0.947648 35.8779 2.11663 35.8779H46.8834C48.0524 35.8779 49 34.9303 49 33.7613V8.04424Z" fill="#FF9407" fill-opacity="0.5"/>
<path d="M49 14.9222C49 13.7532 48.0524 12.8055 46.8834 12.8055H2.11663C0.947649 12.8055 0 13.7532 0 14.9222V33.7602C0 34.9292 0.947648 35.8768 2.11663 35.8768H46.8834C48.0524 35.8768 49 34.9292 49 33.7602V14.9222Z" fill="#FF9407" fill-opacity="0.5"/>
</svg>
