<svg width="49" height="36" viewBox="0 0 49 36" fill="none" xmlns="http://www.w3.org/2000/svg">
<path fill-rule="evenodd" clip-rule="evenodd" d="M46.9975 35.875C46.9597 35.877 46.9217 35.8781 46.8834 35.8781H2.11663C0.947648 35.8781 0 34.9304 0 33.7614V33.7593V14.9213V8.04436C0 8.03787 2.92876e-05 8.03137 8.7738e-05 8.02489V2.11663C8.7738e-05 0.947648 0.947735 0 2.11672 0H15.2887C15.8968 0 16.4755 0.261499 16.8773 0.71785L21.4648 5.92773H46.8834C48.0524 5.92773 49 6.87538 49 8.04436V14.9213V33.7593V33.7614C49 34.7962 48.2574 35.6576 47.276 35.8417C47.2337 35.8631 47.1849 35.8754 47.1313 35.8753L46.9975 35.875Z" fill="white"/>
<path d="M8.7738e-05 33.6591V2.11663C8.7738e-05 0.947648 0.947735 0 2.11672 0H15.2887C15.8968 0 16.4755 0.261499 16.8773 0.71785L47.3703 35.348C47.551 35.5533 47.4048 35.8759 47.1313 35.8753L2.11203 35.7757C0.944885 35.7731 8.7738e-05 34.8263 8.7738e-05 33.6591Z" fill="#FBBC05" fill-opacity="0.5"/>
<path d="M49 8.04424C49 6.87526 48.0524 5.92761 46.8834 5.92761H2.11663C0.947649 5.92761 0 6.87526 0 8.04424V33.7613C0 34.9303 0.947648 35.8779 2.11663 35.8779H46.8834C48.0524 35.8779 49 34.9303 49 33.7613V8.04424Z" fill="#FF9407" fill-opacity="0.5"/>
<path d="M49 14.9222C49 13.7532 48.0524 12.8055 46.8834 12.8055H2.11663C0.947649 12.8055 0 13.7532 0 14.9222V33.7602C0 34.9292 0.947648 35.8768 2.11663 35.8768H46.8834C48.0524 35.8768 49 34.9292 49 33.7602V14.9222Z" fill="#FF9407" fill-opacity="0.5"/>
</svg>
