<svg width="32" height="32" viewBox="0 0 32 32" fill="none" xmlns="http://www.w3.org/2000/svg">
<path d="M15 22C15 22.5523 15.4477 23 16 23C16.5523 23 17 22.5523 17 22C17 21.4477 16.5523 21 16 21C15.4477 21 15 21.4477 15 22Z" stroke="#282828" stroke-width="2" stroke-linecap="round" stroke-linejoin="round"/>
<path d="M15 16C15 16.5523 15.4477 17 16 17C16.5523 17 17 16.5523 17 16C17 15.4477 16.5523 15 16 15C15.4477 15 15 15.4477 15 16Z" stroke="#282828" stroke-width="2" stroke-linecap="round" stroke-linejoin="round"/>
<path d="M15 10C15 10.5523 15.4477 11 16 11C16.5523 11 17 10.5523 17 10C17 9.44772 16.5523 9 16 9C15.4477 9 15 9.44772 15 10Z" stroke="#282828" stroke-width="2" stroke-linecap="round" stroke-linejoin="round"/>
</svg>
