<svg width="24" height="24" viewBox="0 0 24 24" fill="none" xmlns="http://www.w3.org/2000/svg">
<path d="M4.13118 10.5934C3.87616 10.3576 4.01469 9.93124 4.35962 9.89034L9.24721 9.31062C9.38779 9.29395 9.5099 9.20567 9.5692 9.07712L11.6307 4.60782C11.7762 4.2924 12.2246 4.29234 12.3701 4.60776L14.4316 9.07702C14.4909 9.20558 14.6122 9.2941 14.7528 9.31076L19.6407 9.89034C19.9856 9.93124 20.1237 10.3577 19.8687 10.5935L16.2556 13.9355C16.1517 14.0316 16.1054 14.1746 16.133 14.3135L17.0919 19.1409C17.1596 19.4816 16.797 19.7456 16.4939 19.5759L12.1992 17.1713C12.0757 17.1022 11.9256 17.1025 11.802 17.1716L7.50688 19.5753C7.20378 19.745 6.84053 19.4816 6.90823 19.1409L7.86729 14.3138C7.89488 14.1749 7.84872 14.0316 7.74479 13.9354L4.13118 10.5934Z" fill="#1ABC9C" stroke="#1ABC9C" stroke-width="2" stroke-linecap="round" stroke-linejoin="round"/>
</svg>
