<svg width="20" height="20" viewBox="0 0 20 20" fill="none" xmlns="http://www.w3.org/2000/svg">
<path fill-rule="evenodd" clip-rule="evenodd" d="M10 20C4.47715 20 0 15.5228 0 10C0 4.47715 4.47715 0 10 0C15.5228 0 20 4.47715 20 10C20 15.5228 15.5228 20 10 20ZM7.70711 6.29289C7.31658 5.90237 6.68342 5.90237 6.29289 6.29289C5.90237 6.68342 5.90237 7.31658 6.29289 7.70711L8.58572 9.99994L6.29289 12.2928C5.90237 12.6833 5.90237 13.3165 6.29289 13.707C6.68342 14.0975 7.31658 14.0975 7.70711 13.707L9.99994 11.4142L12.2928 13.707C12.6833 14.0975 13.3165 14.0975 13.707 13.707C14.0975 13.3165 14.0975 12.6833 13.707 12.2928L11.4142 9.99994L13.707 7.70711C14.0975 7.31658 14.0975 6.68342 13.707 6.29289C13.3165 5.90237 12.6833 5.90237 12.2928 6.29289L9.99994 8.58572L7.70711 6.29289Z" fill="#676967"/>
</svg>
