<svg width="24" height="24" viewBox="0 0 24 24" fill="none" xmlns="http://www.w3.org/2000/svg">
<path fill-rule="evenodd" clip-rule="evenodd" d="M12 11C10.3431 11 9 9.65685 9 8C9 6.34315 10.3431 5 12 5C13.6569 5 15 6.34315 15 8C15 9.65685 13.6569 11 12 11ZM19 19C19 16.2386 15.866 14 12 14C8.13401 14 5 16.2386 5 19H19Z" fill="#676967"/>
<path d="M19 19V19.875C19.4832 19.875 19.875 19.4832 19.875 19H19ZM5 19H4.125C4.125 19.4832 4.51675 19.875 5 19.875V19ZM8.125 8C8.125 10.1401 9.8599 11.875 12 11.875V10.125C10.8264 10.125 9.875 9.17361 9.875 8H8.125ZM12 4.125C9.8599 4.125 8.125 5.8599 8.125 8H9.875C9.875 6.82639 10.8264 5.875 12 5.875V4.125ZM15.875 8C15.875 5.8599 14.1401 4.125 12 4.125V5.875C13.1736 5.875 14.125 6.82639 14.125 8H15.875ZM12 11.875C14.1401 11.875 15.875 10.1401 15.875 8H14.125C14.125 9.17361 13.1736 10.125 12 10.125V11.875ZM12 14.875C13.7717 14.875 15.3391 15.3893 16.4412 16.1765C17.545 16.9649 18.125 17.9752 18.125 19H19.875C19.875 17.2634 18.888 15.7737 17.4583 14.7524C16.0269 13.73 14.0943 13.125 12 13.125V14.875ZM5.875 19C5.875 17.9752 6.45504 16.9649 7.55884 16.1765C8.66095 15.3893 10.2283 14.875 12 14.875V13.125C9.90566 13.125 7.97306 13.73 6.54167 14.7524C5.11196 15.7737 4.125 17.2634 4.125 19H5.875ZM19 18.125H5V19.875H19V18.125Z" fill="#676967"/>
</svg>
